<?xml version="1.0" encoding="UTF-8"?>
<svg width="400px" height="299px" viewBox="0 0 400 299" version="1.1" xmlns="http://www.w3.org/2000/svg" xmlns:xlink="http://www.w3.org/1999/xlink">
    <!-- Generator: Sketch 58 (84663) - https://sketch.com -->
    <title>Work time-rafiki</title>
    <desc>Created with Sketch.</desc>
    <g id="页面-1" stroke="none" stroke-width="1" fill="none" fill-rule="evenodd">
        <g id="1a注册备份-2" transform="translate(-253.000000, -210.000000)" fill-rule="nonzero">
            <g id="Work-time-rafiki" transform="translate(253.000000, 210.000000)">
                <g id="freepik--background-complete--inject-195">
                    <rect id="矩形" fill="#EBEBEB" x="0" y="261.92" width="400" height="1"></rect>
                    <rect id="矩形" fill="#EBEBEB" x="333.424" y="274.792" width="26.496" height="1"></rect>
                    <rect id="矩形" fill="#EBEBEB" x="258.024" y="276.968" width="6.952" height="1"></rect>
                    <rect id="矩形" fill="#EBEBEB" x="317.272" y="267.368" width="15.352" height="1"></rect>
                    <rect id="矩形" fill="#EBEBEB" x="41.968" y="268.712" width="34.552" height="1"></rect>
                    <rect id="矩形" fill="#EBEBEB" x="83.648" y="268.712" width="5.064" height="1"></rect>
                    <rect id="矩形" fill="#EBEBEB" x="105.176" y="272.088" width="74.944" height="1"></rect>
                    <path d="M189.6,226.24 L35.128,226.24 C32.608288,226.235587 30.568,224.191716 30.568,221.672 L30.568,4.528 C30.5899244,2.02391344 32.6238211,0.00428963178 35.128,1.42108547e-14 L189.6,1.42108547e-14 C192.122837,1.42108547e-14 194.168,2.04516326 194.168,4.568 L194.168,221.672 C194.168,224.194837 192.122837,226.24 189.6,226.24 Z M35.128,0.16 C32.718745,0.164412562 30.768,2.11874096 30.768,4.528 L30.768,221.672 C30.768,224.081259 32.718745,226.035587 35.128,226.04 L189.6,226.04 C192.010554,226.035597 193.963597,224.082554 193.968,221.672 L193.968,4.528 C193.963597,2.11744629 192.010554,0.164402849 189.6,0.16 L35.128,0.16 Z" id="形状" fill="#EBEBEB"></path>
                    <path d="M362.648,226.24 L208.168,226.24 C205.64699,226.235596 203.604404,224.19301 203.6,221.672 L203.6,4.528 C203.626278,2.02262429 205.66249,0.00424246166 208.168,-7.10542736e-15 L362.648,-7.10542736e-15 C365.149059,0.0086645695 367.178114,2.02702213 367.2,4.528 L367.2,221.672 C367.2,224.188602 365.164586,226.231185 362.648,226.24 Z M208.168,0.16 C205.757446,0.164402849 203.804403,2.11744629 203.8,4.528 L203.8,221.672 C203.804403,224.082554 205.757446,226.035597 208.168,226.04 L362.648,226.04 C365.058554,226.035597 367.011597,224.082554 367.016,221.672 L367.016,4.528 C367.011597,2.11744629 365.058554,0.164402849 362.648,0.16 L208.168,0.16 Z" id="形状" fill="#EBEBEB"></path>
                    <circle id="椭圆形" fill="#E0E0E0" cx="287.456" cy="66.264" r="41.936"></circle>
                    <circle id="椭圆形" fill="#F5F5F5" cx="284.272" cy="66.264" r="41.936"></circle>
                    <circle id="椭圆形" fill="#FFFFFF" transform="translate(284.275081, 66.269763) rotate(-45.000000) translate(-284.275081, -66.269763) " cx="284.275081" cy="66.2697632" r="38.76"></circle>
                    <path d="M290.88,94.4720009 C290.445797,94.4725863 290.0682,94.1744834 289.968,93.752 L283.36,66.488 C283.262961,65.9930318 283.572172,65.5092198 284.062125,65.3894058 C284.552079,65.2695918 285.049667,65.5561082 285.192,66.04 L291.792,93.312 C291.912355,93.8177106 291.601209,94.3255577 291.096,94.448 C291.025096,94.4638866 290.952662,94.4720009 290.88,94.4720009 Z" id="路径" fill="#F5F5F5"></path>
                    <path d="M284.272,68.1440001 C283.773493,68.1440001 283.295511,67.9454813 282.944,67.592 L260.264,44.912 C259.789551,44.4361222 259.60502,43.7432777 259.779918,43.0944541 C259.954816,42.4456306 260.462572,41.9393998 261.111918,41.7664541 C261.761265,41.5935083 262.453551,41.7801222 262.928,42.256 L284.272,63.608 L296.728,51.152 C297.463643,50.4185659 298.654566,50.4203567 299.388,51.156 C300.121434,51.8916433 300.119643,53.0825659 299.384,53.816 L285.6,67.592 C285.247988,67.9447342 284.770331,68.1432785 284.272,68.1440001 Z" id="路径" fill="#EBEBEB"></path>
                    <rect id="矩形" fill="#F0F0F0" transform="translate(180.360000, 234.440000) rotate(180.000000) translate(-180.360000, -234.440000) " x="177.2" y="212.8" width="6.32" height="43.28"></rect>
                    <rect id="矩形" fill="#F0F0F0" transform="translate(114.360000, 259.000000) rotate(180.000000) translate(-114.360000, -259.000000) " x="49.368" y="256.08" width="129.984" height="5.84"></rect>
                    <rect id="矩形" fill="#F5F5F5" x="45.192" y="212.8" width="132.008" height="43.28"></rect>
                    <rect id="矩形" fill="#F0F0F0" x="53.728" y="220.336" width="114.928" height="24.72"></rect>
                    <rect id="矩形" fill="#F5F5F5" transform="translate(111.200000, 221.568000) rotate(180.000000) translate(-111.200000, -221.568000) " x="81.344" y="219.496" width="59.712" height="4.144" rx="1.896"></rect>
                    <rect id="矩形" fill="#F0F0F0" transform="translate(109.748000, 210.868000) rotate(180.000000) translate(-109.748000, -210.868000) " x="42.296" y="208.936" width="134.904" height="3.864"></rect>
                    <rect id="矩形" fill="#E6E6E6" x="177.2" y="208.936" width="9.352" height="3.864"></rect>
                    <rect id="矩形" fill="#F0F0F0" x="331.432" y="167.104" width="12.32" height="94.816"></rect>
                    <rect id="矩形" fill="#F5F5F5" transform="translate(277.516000, 214.512000) rotate(180.000000) translate(-277.516000, -214.512000) " x="223.6" y="167.104" width="107.832" height="94.816"></rect>
                    <rect id="矩形" fill="#FAFAFA" transform="translate(269.952000, 228.236000) rotate(180.000000) translate(-269.952000, -228.236000) " x="222.616" y="202.88" width="94.672" height="50.712"></rect>
                    <rect id="矩形" fill="#FAFAFA" transform="translate(269.952000, 189.156000) rotate(180.000000) translate(-269.952000, -189.156000) " x="222.616" y="180.808" width="94.672" height="16.696"></rect>
                    <rect id="矩形" fill="#E6E6E6" opacity="0.7" style="mix-blend-mode: multiply;" x="317.288" y="202.88" width="1" height="50.712"></rect>
                    <rect id="矩形" fill="#E6E6E6" opacity="0.7" style="mix-blend-mode: multiply;" x="317.288" y="180.808" width="1" height="16.696"></rect>
                    <rect id="矩形" fill="#E6E6E6" opacity="0.7" style="mix-blend-mode: multiply;" x="223.328" y="171.104" width="120.424" height="2.144"></rect>
                    <rect id="矩形" fill="#F0F0F0" x="331.432" y="165.808" width="13.76" height="6.2"></rect>
                    <rect id="矩形" fill="#F5F5F5" transform="translate(276.796000, 168.908000) rotate(180.000000) translate(-276.796000, -168.908000) " x="222.16" y="165.808" width="109.272" height="6.2"></rect>
                    <path d="M263.152,147.552 C262.408748,146.380953 261.918276,145.067578 261.712,143.696 C261.495029,142.326043 261.425299,140.936798 261.504,139.552 C261.675367,136.796626 262.263379,134.083142 263.248,131.504 C263.716704,130.224138 264.250739,128.969156 264.848,127.744 C265.488,126.544 266.128,125.344 266.848,124.2 C267.568,123.056 268.36,121.952 269.176,120.88 C269.992,119.808 270.912,118.808 271.864,117.84 C271.4,119.128 270.848,120.344 270.264,121.56 C269.68,122.776 269.224,124 268.664,125.184 L267.112,128.784 L266.4,130.6 L266.032,131.504 L265.712,132.416 C264.798087,134.819833 264.073219,137.29134 263.544,139.808 C263.269114,141.065483 263.081996,142.340558 262.984,143.624 C262.864587,144.934967 262.921088,146.256017 263.152,147.552 Z" id="路径" fill="#E6E6E6"></path>
                    <path d="M247.624,149.672 C247.726873,147.740514 247.557207,145.804164 247.12,143.92 C246.710783,142.202243 245.908389,140.602933 244.776,139.248 C243.568728,137.905219 242.139998,136.779552 240.552,135.92 C238.912,134.968 237.104,134.224 235.24,133.344 C237.311347,133.123068 239.405994,133.346715 241.384,134 C242.405828,134.334575 243.383559,134.791208 244.296,135.36 C245.228958,135.960661 246.072018,136.690595 246.8,137.528 C248.252809,139.241392 249.096807,141.38796 249.2,143.632 C249.310233,145.759695 248.75975,147.869416 247.624,149.672 L247.624,149.672 Z" id="路径" fill="#E6E6E6"></path>
                    <path d="M248.32,149.392 C248.252218,147.140854 248.041124,144.89631 247.688,142.672 C247.357713,140.552247 246.769343,138.480861 245.936,136.504 C245.102185,134.560413 243.956426,132.766112 242.544,131.192 C241.019428,129.564408 239.324363,128.105365 237.488,126.84 C239.853935,127.20679 242.085575,128.176588 243.968,129.656 C245.897549,131.18867 247.412905,133.17981 248.376,135.448 C249.325808,137.680109 249.797275,140.086499 249.76,142.512 C249.773904,144.88156 249.283016,147.226912 248.32,149.392 L248.32,149.392 Z" id="路径" fill="#E6E6E6"></path>
                    <path d="M262.088,145.304 C260.350157,143.049074 258.874031,140.604073 257.688,138.016 C256.482304,135.434673 255.489665,132.759094 254.72,130.016 C253.941347,127.265573 253.424382,124.447711 253.176,121.6 C252.913981,118.75283 253.04589,115.883126 253.568,113.072 C254.152,115.88 254.6,118.592 255.24,121.288 C255.88,123.984 256.52,126.64 257.28,129.288 C258.04,131.936 258.808,134.584 259.632,137.232 C260.456,139.88 261.296,142.568 262.088,145.304 Z" id="路径" fill="#E6E6E6"></path>
                    <path d="M261.368,145.104 C259.38761,143.166795 257.622669,141.02097 256.104,138.704 C254.583393,136.393402 253.245975,133.967326 252.104,131.448 C250.946168,128.922643 250.024895,126.295406 249.352,123.6 C248.670947,120.899989 248.361427,118.119687 248.432,115.336 C249.44,117.944 250.312,120.472 251.344,122.96 C252.376,125.448 253.4,127.912 254.544,130.352 C255.688,132.792 256.792,135.224 257.96,137.672 C259.128,140.12 260.256,142.56 261.368,145.104 Z" id="路径" fill="#E6E6E6"></path>
                    <path d="M264.344,147.664 C262.100872,146.476147 260.017562,145.008421 258.144,143.296 C256.25722,141.595074 254.534939,139.720117 253,137.696 C251.433804,135.682988 250.092494,133.504701 249,131.2 C247.906752,128.89725 247.178055,126.438572 246.84,123.912 C248.216,126.064 249.432,128.168 250.84,130.176 C252.248,132.184 253.608,134.176 255.104,136.088 C256.6,138 258.096,139.92 259.648,141.824 C261.2,143.728 262.776,145.664 264.344,147.664 Z" id="路径" fill="#E6E6E6"></path>
                    <path d="M260,145.12 C257.82059,144.222769 255.800019,142.980171 254.016,141.44 C252.216344,139.926138 250.604827,138.201815 249.216,136.304 C248.510327,135.357499 247.858624,134.371932 247.264,133.352 C246.684837,132.317672 246.169216,131.249027 245.72,130.152 C244.799742,127.979117 244.23519,125.672287 244.048,123.32 C245.304,125.328 246.336,127.32 247.584,129.192 C248.144,130.16 248.816,131.056 249.4,132 C249.984,132.944 250.664,133.824 251.352,134.704 C252.674667,136.485333 254.061333,138.232 255.512,139.944 C256.92,141.68 258.4,143.368 260,145.12 Z" id="路径" fill="#E6E6E6"></path>
                    <path d="M263.408,146.488 C262.373204,145.757579 261.546138,144.770615 261.008,143.624 C260.452239,142.479604 260.06168,141.262135 259.848,140.008 C259.447982,137.520986 259.518538,134.980972 260.056,132.52 C260.314818,131.312411 260.635236,130.118852 261.016,128.944 C261.472,127.8 261.88,126.64 262.424,125.544 C262.968,124.448 263.544,123.376 264.192,122.344 C264.858435,121.321314 265.576706,120.333359 266.344,119.384 C266.088,120.592 265.728,121.736 265.384,122.88 C265.04,124.024 264.752,125.176 264.376,126.288 C264,127.4 263.776,128.552 263.432,129.664 L263.04,131.352 C262.904,131.912 262.744,132.472 262.664,133.04 C262.181292,135.261127 261.934589,137.527035 261.928,139.8 C261.917975,140.935245 262.0198,142.068718 262.232,143.184 C262.431858,144.344563 262.829646,145.462156 263.408,146.488 Z" id="路径" fill="#E6E6E6"></path>
                    <path d="M261.92,143.936 C260.16629,142.061149 258.895064,139.78777 258.216,137.312 C257.47745,134.812432 257.240905,132.191409 257.52,129.6 C257.56,128.952 257.72,128.32 257.824,127.68 L258.008,126.72 L258.288,125.792 C258.496,125.176 258.672,124.56 258.904,123.96 C259.136,123.36 259.44,122.784 259.704,122.208 L260.136,121.352 L260.656,120.552 L261.712,118.952 C262.501566,117.967272 263.354013,117.034658 264.264,116.16 C263.848,117.368 263.296,118.464 262.848,119.6 L262.216,121.304 L261.896,122.104 L261.64,122.968 C261.472,123.536 261.296,124.104 261.112,124.664 L260.72,126.384 L260.512,127.24 L260.392,128.104 C260.32,128.68 260.176,129.256 260.144,129.832 C259.900116,132.160967 259.932339,134.510597 260.24,136.832 C260.536399,139.254692 261.099824,141.637174 261.92,143.936 L261.92,143.936 Z" id="路径" fill="#E6E6E6"></path>
                    <polygon id="路径" fill="#E6E6E6" points="258.544 142.96 247.08 132.76 248.776 146.608"></polygon>
                    <polygon id="路径" fill="#F5F5F5" points="236.448 141.096 269.712 141.096 265.352 165.808 240.808 165.808"></polygon>
                    <polygon id="路径" fill="#EBEBEB" points="257.232 141.096 269.712 141.096 265.352 165.808 258.8 165.808"></polygon>
                    <path d="M299.088,147.6 C299.244686,146.507603 299.198582,145.395676 298.952,144.32 C298.740388,143.290657 298.410185,142.289309 297.968,141.336 C297.07153,139.42312 295.934322,137.632622 294.584,136.008 C294.28,135.568 293.888,135.208 293.544,134.784 C293.2,134.36 292.848,133.984 292.48,133.56 C291.68,132.76 290.992,131.96 290.2,131.16 C289.408,130.36 288.648,129.56 287.848,128.76 C287.048,127.96 286.248,127.16 285.448,126.288 C286.528,126.696 287.552,127.2 288.592,127.712 C289.601039,128.266794 290.58099,128.872921 291.528,129.528 C292.00534,129.854975 292.464676,130.207489 292.904,130.584 C293.352,130.952 293.792,131.336 294.232,131.712 C295.084992,132.516893 295.88657,133.374582 296.632,134.28 C298.168213,136.129734 299.28947,138.287677 299.92,140.608 C300.223495,141.782296 300.328943,142.998999 300.232,144.208 C300.177591,145.423817 299.78105,146.599574 299.088,147.6 Z" id="路径" fill="#E6E6E6"></path>
                    <path d="M317.792,144.248 C316.94893,143.521409 316.325518,142.573822 315.992,141.512 C315.80713,140.965147 315.686322,140.398695 315.632,139.824 C315.615999,139.530885 315.615999,139.237115 315.632,138.944 C315.622517,138.651144 315.649388,138.358242 315.712,138.072 C316.18185,135.796312 317.371053,133.732035 319.104,132.184 C319.504,131.792 319.96,131.48 320.384,131.128 C320.805854,130.777663 321.255316,130.46197 321.728,130.184 C322.192,129.912 322.656,129.632 323.136,129.384 C323.368,129.256 323.6,129.112 323.848,129 L324.584,128.688 C325.08,128.48 325.576,128.288 326.072,128.096 C326.565314,127.89644 327.073545,127.735947 327.592,127.616 C328.622615,127.3475 329.666749,127.133867 330.72,126.976 C329.892913,127.631121 329.030265,128.240048 328.136,128.8 C327.696,129.064 327.28,129.36 326.864,129.664 C326.448,129.968 326.064,130.24 325.6,130.52 C324.728,131.04 324,131.704 323.2,132.264 C322.800537,132.544058 322.420961,132.851461 322.064,133.184 C321.696,133.504 321.264,133.792 320.96,134.128 C319.574384,135.352942 318.480919,136.872858 317.76,138.576 C317.607358,139.004366 317.4844,139.442737 317.392,139.888 C317.318321,140.351045 317.280874,140.819131 317.28,141.288 C317.279757,142.296719 317.452947,143.29797 317.792,144.248 L317.792,144.248 Z" id="路径" fill="#E6E6E6"></path>
                    <path d="M316.936,144.248 C315.490927,142.365728 314.703946,140.060998 314.696,137.688 C314.662738,135.257398 315.281539,132.862304 316.488,130.752 L317.448,129.232 C317.816,128.76 318.208,128.312 318.6,127.864 L319.2,127.2 L319.856,126.624 L321.2,125.496 C322.149888,124.83689 323.135382,124.230637 324.152,123.68 C325.195472,123.206813 326.263687,122.790209 327.352,122.432 C326.552,123.28 325.752,124.032 324.896,124.752 C324.04,125.472 323.344,126.296 322.592,127.056 C322.24,127.472 321.896,127.856 321.536,128.264 L321,128.848 L320.544,129.488 C320.24,129.912 319.904,130.288 319.608,130.736 L318.808,132.056 C317.793613,133.836333 317.108012,135.784739 316.784,137.808 C316.452537,139.946706 316.504005,142.127313 316.936,144.248 L316.936,144.248 Z" id="路径" fill="#E6E6E6"></path>
                    <path d="M300.112,145.432 C300.776,142.96 301.496,140.576 302.192,138.232 C302.888,135.888 303.568,133.496 304.192,131.128 C304.816,128.76 305.336,126.376 305.792,123.928 C306.248,121.48 306.496,119.128 306.712,116.536 C307.55274,118.979089 307.948341,121.5532 307.88,124.136 C307.783606,126.707206 307.410793,129.260573 306.768,131.752 C306.115456,134.228306 305.234339,136.638657 304.136,138.952 C303.062492,141.267235 301.711226,143.443229 300.112,145.432 L300.112,145.432 Z" id="路径" fill="#E6E6E6"></path>
                    <path d="M300.944,145.032 C301.984,142.632 303.104,140.232 304.208,137.936 C305.312,135.64 306.424,133.304 307.488,130.984 C308.552,128.664 309.576,126.336 310.528,123.976 C311.48,121.616 312.296,119.176 313.096,116.664 C313.343441,119.319926 313.151537,121.998475 312.528,124.592 C311.896993,127.170944 311.021012,129.683696 309.912,132.096 C308.797996,134.489103 307.495212,136.789706 306.016,138.976 C304.550999,141.173409 302.850235,143.204131 300.944,145.032 L300.944,145.032 Z" id="路径" fill="#E6E6E6"></path>
                    <path d="M297.688,148.08 C299.248,145.936 300.888,143.912 302.488,141.888 C304.088,139.864 305.688,137.888 307.24,135.848 C308.792,133.808 310.312,131.784 311.768,129.688 C313.224,127.592 314.552,125.432 315.904,123.144 C315.549755,125.787797 314.763267,128.35537 313.576,130.744 C312.386361,133.116567 310.971883,135.369551 309.352,137.472 C307.730595,139.554251 305.946314,141.504386 304.016,143.304 C302.087135,145.121989 299.96518,146.723515 297.688,148.08 L297.688,148.08 Z" id="路径" fill="#E6E6E6"></path>
                    <path d="M302.584,144.592 C304.112,142.68 305.64,140.872 307.144,139.04 C308.648,137.208 310.104,135.392 311.528,133.544 C312.952,131.696 314.272,129.792 315.528,127.848 C316.784,125.904 317.928,123.848 319.16,121.72 C318.980179,124.179311 318.373802,126.588577 317.368,128.84 C316.366212,131.088191 315.101382,133.209668 313.6,135.16 C312.112104,137.100641 310.434478,138.888144 308.592,140.496 C306.778969,142.120617 304.758734,143.497928 302.584,144.592 L302.584,144.592 Z" id="路径" fill="#E6E6E6"></path>
                    <path d="M298.672,146.824 C299.54026,145.088746 299.958405,143.163078 299.888,141.224 C299.782157,139.373225 299.308962,137.562032 298.496,135.896 L298.224,135.248 L297.88,134.624 L297.208,133.36 C296.672,132.56 296.192,131.704 295.608,130.88 C295.024,130.056 294.496,129.232 293.904,128.408 C293.28234,127.579103 292.702936,126.719342 292.168,125.832 C293.088056,126.338019 293.980029,126.8935 294.84,127.496 C295.678855,128.134631 296.480186,128.821104 297.24,129.552 C297.619517,129.923607 297.974907,130.319079 298.304,130.736 C298.645333,131.146667 298.981333,131.562667 299.312,131.984 L300.168,133.368 L300.576,134.072 L300.912,134.824 C301.888035,136.851963 302.249546,139.121139 301.952,141.352 C301.664719,143.551902 300.476789,145.533716 298.672,146.824 L298.672,146.824 Z" id="路径" fill="#E6E6E6"></path>
                    <path d="M300.16,144.272 C300.818076,142.289339 301.268491,140.243703 301.504,138.168 C301.720126,136.232995 301.576373,134.274703 301.08,132.392 C300.830674,131.463881 300.481991,130.565354 300.04,129.712 C299.599867,128.831886 299.080383,127.993748 298.488,127.208 C297.214494,125.543679 295.818622,123.976665 294.312,122.52 C296.455522,123.154801 298.42018,124.283726 300.048,125.816 C300.896853,126.596771 301.634415,127.49046 302.24,128.472 C302.864159,129.463614 303.338601,130.541891 303.648,131.672 C304.250469,133.933501 304.21447,136.317719 303.544,138.56 C302.938014,140.72849 301.770749,142.698769 300.16,144.272 Z" id="路径" fill="#E6E6E6"></path>
                    <polygon id="路径" fill="#E6E6E6" points="304.072 142.376 316.584 130.36 316.08 142.144"></polygon>
                    <polygon id="路径" fill="#F5F5F5" points="290.384 141.096 323.648 141.096 319.288 165.808 294.744 165.808"></polygon>
                    <polygon id="路径" fill="#EBEBEB" points="311.16 141.096 323.648 141.096 319.288 165.808 312.736 165.808"></polygon>
                    <path d="M83.096,28.576 L83.096,158.176 C83.096,169.398426 73.9984261,178.496 62.776,178.496 L157.176,178.496 C168.399721,178.496 177.499583,169.39972 177.504,158.176 L177.504,28.576 L83.096,28.576 Z" id="路径" fill="#F5F5F5"></path>
                    <rect id="矩形" fill="#F0F0F0" x="101.688" y="61.384" width="61" height="61"></rect>
                    <rect id="矩形" fill="#FFFFFF" x="99.816" y="59.504" width="61" height="61"></rect>
                    <rect id="矩形" fill="#FFFFFF" x="99.28" y="129.536" width="15.512" height="15.512"></rect>
                    <rect id="矩形" fill="#FFFFFF" x="145.296" y="129.536" width="15.512" height="15.512"></rect>
                    <rect id="矩形" fill="#FFFFFF" x="122.288" y="129.536" width="15.512" height="15.512"></rect>
                    <rect id="矩形" fill="#F0F0F0" x="83.096" y="28.576" width="94.424" height="15.424"></rect>
                    <path d="M88.7999883,23.624 L88.7999883,33.528 C88.7978671,34.2606493 89.087967,34.963906 89.6060305,35.4819695 C90.124094,36.000033 90.8273507,36.2901329 91.56,36.2880117 L91.56,36.2880117 C93.0843059,36.2880117 94.32,35.0523059 94.32,33.528 L94.32,23.624 C94.3156061,22.1015178 93.0824822,20.8683939 91.56,20.864 L91.56,20.864 C90.8280025,20.864 90.1259857,21.1547849 89.6083853,21.6723853 C89.0907849,22.1899857 88.7999883,22.8920025 88.7999883,23.624 L88.7999883,23.624 Z" id="路径" fill="#E6E6E6"></path>
                    <path d="M166.336,23.624 L166.336,33.528 C166.336,35.0523059 167.571694,36.2880117 169.096,36.2880117 L169.096,36.2880117 C169.828649,36.2901329 170.531906,36.000033 171.04997,35.4819695 C171.568033,34.963906 171.858133,34.2606493 171.856012,33.528 L171.856012,23.624 C171.856012,22.0996941 170.620306,20.864 169.096,20.864 L169.096,20.864 C167.573518,20.8683939 166.340394,22.1015178 166.336,23.624 L166.336,23.624 Z" id="路径" fill="#E6E6E6"></path>
                    <path d="M150.824,23.624 L150.824,33.528 C150.824,34.2599975 151.114785,34.9620143 151.632385,35.4796147 C152.149986,35.9972151 152.852002,36.288 153.584,36.288 L153.584,36.288 C155.108306,36.288 156.344,35.0523059 156.344,33.528 L156.344,23.624 C156.339675,22.1077191 155.11623,20.8771408 153.6,20.8639884 L153.6,20.8639884 C152.86588,20.8618752 152.160984,21.1514671 151.640382,21.6690682 C151.11978,22.1866692 150.826119,22.8898798 150.824,23.624 L150.824,23.624 Z" id="路径" fill="#E6E6E6"></path>
                    <path d="M135.311988,23.624 L135.311988,33.528 C135.309867,34.2606493 135.599967,34.963906 136.11803,35.4819695 C136.636094,36.000033 137.339351,36.2901329 138.072,36.2880117 L138.072,36.2880117 C139.585631,36.2748058 140.804458,35.0416818 140.800012,33.528 L140.800012,23.624 C140.800012,22.1028128 139.569181,20.8684092 138.048,20.864 L138.048,20.864 C136.533075,20.8771738 135.311988,22.1090177 135.311988,23.624 L135.311988,23.624 Z" id="路径" fill="#E6E6E6"></path>
                    <path d="M119.799988,23.624 L119.799988,33.528 C119.797874,34.2592609 120.086878,34.9612998 120.603208,35.4791315 C121.119539,35.9969632 121.820736,36.2880117 122.552,36.2880117 L122.552,36.2880117 C123.284649,36.2901329 123.987906,36.000033 124.50597,35.4819695 C125.024033,34.963906 125.314133,34.2606493 125.312012,33.528 L125.312012,23.624 C125.312012,22.0996941 124.076306,20.864 122.552,20.864 L122.552,20.864 C121.030819,20.8684092 119.799988,22.1028128 119.799988,23.624 Z" id="路径" fill="#E6E6E6"></path>
                    <path d="M104.28,23.624 L104.28,33.528 C104.28,34.2599975 104.570785,34.9620143 105.088385,35.4796147 C105.605986,35.9972151 106.308002,36.288 107.04,36.288 L107.04,36.288 C108.564306,36.288 109.8,35.0523059 109.8,33.528 L109.8,23.624 C109.795606,22.1015178 108.562482,20.8683939 107.04,20.864 L107.04,20.864 C105.517518,20.8683939 104.284394,22.1015178 104.28,23.624 L104.28,23.624 Z" id="路径" fill="#E6E6E6"></path>
                    <path d="M148.696,169.952 C148.696,174.64863 152.50337,178.456 157.2,178.456 L50.952,178.456 C46.2553705,178.456 42.448,174.64863 42.448,169.952 L148.696,169.952 Z" id="路径" fill="#E6E6E6"></path>
                </g>
                <g id="freepik--Shadow--inject-195" transform="translate(44.800000, 279.200000)" fill="#F5F5F5">
                    <ellipse id="freepik--path--inject-195" cx="155.2" cy="9.792" rx="155.112" ry="9.056"></ellipse>
                </g>
                <g id="freepik--Hourglass--inject-195" transform="translate(144.800000, 132.800000)">
                    <path d="M70.872,79.784 C70.872,79.784 12.08,114.496 12.08,147.384 L129.68,147.384 C129.672,114.496 70.872,79.784 70.872,79.784 Z" id="路径" fill="#407BFF" opacity="0.2"></path>
                    <path d="M70.872,121.2 C70.872,121.2 16.584,134.648 16.584,147.384 L125.16,147.384 C125.16,134.648 70.872,121.2 70.872,121.2 Z" id="路径" fill="#407BFF" opacity="0.2"></path>
                    <path d="M78.008,89.368 C89.048,100.224 110.504,124.28 110.504,147.384 L95.792,147.384 C95.792,124.28 84.048,100.224 78.008,89.368 Z" id="路径" fill="#FFFFFF" opacity="0.3"></path>
                    <path d="M70.872,79.784 C70.872,79.784 12.08,45.072 12.08,12.184 L129.68,12.184 C129.672,45.072 70.872,79.784 70.872,79.784 Z" id="路径" fill="#407BFF" opacity="0.2"></path>
                    <path d="M70.872,76.616 C70.872,76.616 40.856,62.216 40.856,48.536 L100.896,48.536 C100.896,62.192 70.872,76.616 70.872,76.616 Z" id="路径" fill="#407BFF" opacity="0.2"></path>
                    <path d="M64.464,70.2 C53.432,59.344 32,35.288 32,12.184 L46.712,12.184 C46.68,35.288 58.4,59.344 64.464,70.2 Z" id="路径" fill="#FFFFFF" opacity="0.3"></path>
                    <path d="M78.008,70.2 C89.048,59.344 109.968,32.504 110.504,12.184 L106.584,12.184 C104.744,36.96 86.744,59.696 78.008,70.2 Z" id="路径" fill="#FFFFFF" opacity="0.3"></path>
                    <rect id="矩形" fill="#407BFF" x="115.024" y="0.576" width="6.664" height="1"></rect>
                    <path d="M144.312,11.568 L143.512,11.568 C143.507596,5.94406146 138.951933,1.38482014 133.328,1.376 L126.296,1.376 L126.296,0.576 L133.328,0.576 C139.391936,0.589214437 144.303201,5.50405625 144.312,11.568 L144.312,11.568 Z" id="路径" fill="#407BFF"></path>
                    <rect id="矩形" fill="#407BFF" x="0.232" y="3.376" width="141.28" height="17.616" rx="8.192"></rect>
                    <rect id="矩形" fill="#407BFF" x="0.232" y="138.576" width="141.28" height="17.616" rx="8.192"></rect>
                </g>
                <g id="freepik--Character--inject-195" transform="translate(94.400000, 20.000000)">
                    <polygon id="路径" fill="#FF8B7B" points="18.176 179.616 12.752 174.8 22 160.6 27.424 165.408"></polygon>
                    <path d="M13.872,171.744 L20.768,176.544 C20.8868805,176.618205 20.9713845,176.736627 21.0028961,176.873178 C21.0344078,177.009728 21.0103419,177.153205 20.936,177.272 L17.48,182.968 C17.0659047,183.563971 16.2500805,183.71716 15.648,183.312 C13.248,181.608 12.36,180.776 9.488,178.456 C6.64936073,176.224996 3.9258532,173.851272 1.328,171.344 C-0.8,169.136 1.448,167 2.576,167.76 C5.24,169.568 9.872,171.56 12.552,171.4 C13.0181593,171.363026 13.4831784,171.484213 13.872,171.744 L13.872,171.744 Z" id="路径" fill="#263238"></path>
                    <polygon id="路径" fill="#000000" opacity="0.2" points="27.416 165.416 21.992 160.6 17.544 167.44 23.104 172.056"></polygon>
                    <path d="M82.6,94.48 C82.6,94.48 46.2,91.992 41.688,104.328 C31.424,132.376 18.072,162.128 18.072,162.128 L28.8,169.896 C28.8,169.896 51.48,135.216 58.4,112.952 C72.4,116.352 97.712,119.256 105.864,109.896 C112.824,101.896 107.616,94.48 107.616,94.48 L82.6,94.48 Z" id="路径" fill="#263238"></path>
                    <path d="M51.424,116.28 C50.576,119.704 49.288,129.512 48.488,136.016 C50.256,132.592 51.936,129.12 53.448,125.728 L51.424,116.28 Z" id="路径" fill="#000000" opacity="0.3"></path>
                    <polygon id="路径" fill="#407BFF" points="28.112 173.408 15.944 163.872 18.432 158.528 32.032 168.92"></polygon>
                    <path d="M10.952,171.304 C11.5161181,171.671455 12.1166281,171.979752 12.744,172.224 C12.8077244,172.246131 12.8784921,172.229892 12.9261922,172.182192 C12.9738922,172.134492 12.9901314,172.063724 12.968,172 C12.864,171.728 11.952,169.336 11,169.104 C10.7780722,169.05318 10.545581,169.119606 10.384,169.28 C10.1116357,169.495766 9.97452463,169.840067 10.024,170.184 C10.1858761,170.658303 10.5160487,171.056788 10.952,171.304 Z M12.496,171.744 C11.24,171.2 10.456,170.6 10.368,170.144 C10.3399216,169.917137 10.4381383,169.693081 10.624,169.56 C10.6993131,169.479007 10.8126715,169.445305 10.92,169.472 C11.432,169.6 12.096,170.792 12.496,171.744 Z" id="形状" fill="#407BFF"></path>
                    <path d="M12.704,172.2 C12.7301314,172.207556 12.7578686,172.207556 12.784,172.2 C12.8446443,172.206503 12.9045703,172.182533 12.944,172.136 C13,172.072 14.36,170.4 14.16,169.368 C14.1065889,169.100635 13.9322648,168.873127 13.688,168.752 C13.435404,168.593701 13.1082719,168.623143 12.888,168.824 C12.28,169.392 12.304,171.312 12.664,172.104 C12.6693157,172.13878 12.683047,172.171735 12.704,172.2 L12.704,172.2 Z M13.592,169.136 C13.7088821,169.21325 13.7896465,169.334397 13.816,169.472 C13.936,170.08 13.288,171.128 12.864,171.704 C12.64,170.904 12.712,169.48 13.104,169.112 C13.184,169.04 13.296,168.968 13.528,169.112 L13.592,169.136 Z" id="形状" fill="#407BFF"></path>
                    <polygon id="路径" fill="#FF8B7B" points="66 188.008 59 189.408 57.704 170.664 64.816 170.888"></polygon>
                    <path d="M58.048,186.848 L66.048,183.48 C66.1802324,183.414898 66.3332215,183.406238 66.4719559,183.456002 C66.6106903,183.505765 66.7232948,183.609692 66.784,183.744 L69.84,189.888 C70.1308777,190.579551 69.8141721,191.376652 69.128,191.68 C66.328,192.808 64.936,193.2 61.424,194.688 C59.264,195.6 53.424,198.24 50.304,199.016 C47.184,199.792 46.48,196.664 47.744,196.056 C50.736,194.616 55.696,190.224 57.032,187.8 C57.2595911,187.381752 57.6158489,187.047936 58.048,186.848 L58.048,186.848 Z" id="路径" fill="#263238"></path>
                    <path d="M56.056,189.152 C56.6862745,188.863959 57.2842753,188.509985 57.84,188.096 C57.8961388,188.05267 57.9238222,187.981923 57.912,187.912 C57.8928926,187.843496 57.8374835,187.791165 57.768,187.776 C57.48,187.712 54.888,187.192 54.16,187.896 C53.9912151,188.059302 53.9212499,188.299618 53.976,188.528 C54.0124813,188.880344 54.2355284,189.185888 54.56,189.328 C55.0632474,189.456737 55.5963707,189.394017 56.056,189.152 L56.056,189.152 Z M57.28,188.048 C56.12,188.848 55.168,189.192 54.696,189.008 C54.481345,188.909646 54.3394167,188.699839 54.328,188.464 C54.2965679,188.353182 54.3271219,188.234021 54.408,188.152 C54.8,187.776 56.24,187.872 57.28,188.048 Z" id="形状" fill="#407BFF"></path>
                    <path d="M57.8,188.12 C57.8272559,188.105945 57.8516687,188.086958 57.872,188.064 C57.8990573,188.011268 57.8990573,187.948732 57.872,187.896 C57.872,187.808 57.136,185.696 56.128,185.304 C55.8650983,185.19913 55.567952,185.225873 55.328,185.376 C55.0388375,185.504914 54.8788752,185.818173 54.944,186.128 C55.104,186.928 56.792,188.008 57.68,188.128 C57.7195183,188.14104 57.7625624,188.138171 57.8,188.12 L57.8,188.12 Z M55.616,185.648 C55.7490117,185.591995 55.8989883,185.591995 56.032,185.648 C56.632,185.88 57.184,187.024 57.456,187.712 C56.656,187.448 55.432,186.624 55.328,186.064 C55.328,185.96 55.328,185.824 55.544,185.696 L55.616,185.648 Z" id="形状" fill="#407BFF"></path>
                    <polygon id="路径" fill="#000000" opacity="0.2" points="64.824 170.896 57.704 170.664 58.384 180.456 65.472 180.328"></polygon>
                    <path d="M100.28,94.48 C100.28,94.48 48.28,99.4 50.152,115.056 C52.888,137.64 54.888,177.184 54.888,177.184 L68.144,177.704 C68.144,177.704 73.12,142.936 70.208,119.808 C83.672,119.808 112.92,120.52 118.064,113.56 C124.168,105.304 121.344,94.48 121.344,94.48 L100.28,94.48 Z" id="路径" fill="#263238"></path>
                    <polygon id="路径" fill="#407BFF" points="69.608 178.52 53.696 177.728 53.128 170.808 70.576 172.008"></polygon>
                    <path d="M88.736,48.632 C88.624,50.064 88.496,51.336 88.32,52.672 C88.144,54.008 87.976,55.312 87.768,56.632 C87.384,59.264 86.856,61.88 86.264,64.512 C85.672,67.144 84.944,69.768 84.032,72.416 C83.1060772,75.2016666 81.8914762,77.8829051 80.408,80.416 C79.522322,81.906285 78.4466393,83.2750913 77.208,84.488 C76.8800109,84.7946014 76.5354963,85.0830322 76.176,85.352 C75.848,85.624 75.52,85.856 75.184,86.088 C74.544321,86.5391799 73.8792228,86.9531968 73.192,87.328 C70.6550519,88.7081713 67.9717086,89.800292 65.192,90.584 C63.872,90.992 62.544,91.32 61.192,91.616 C59.84,91.912 58.552,92.168 57.192,92.376 C54.5446144,92.8091506 51.8727345,93.0763386 49.192,93.176 C47.8252445,93.2338079 46.6258384,92.2732617 46.3836144,90.9269 C46.1413904,89.5805382 46.9307994,88.2621842 48.232,87.84 L48.336,87.8 C53.0273282,86.3159402 57.6295697,84.5637229 62.12,82.552 C64.1847592,81.6175455 66.1608031,80.4983229 68.024,79.208 C68.448,78.904 68.824,78.592 69.208,78.28 C69.384,78.128 69.568,77.976 69.72,77.816 C69.8617896,77.6885564 69.9953888,77.5522852 70.12,77.408 C70.6511253,76.7658831 71.1073983,76.0653698 71.48,75.32 C72.4507261,73.3484021 73.230289,71.2883201 73.808,69.168 C74.456,66.92 75.016,64.576 75.48,62.192 C75.944,59.808 76.36,57.392 76.752,54.944 C77.144,52.496 77.44,50 77.712,47.68 L77.712,47.544 C78.1282059,44.6292442 80.767469,42.5602499 83.6973055,42.8519466 C86.6271419,43.1436434 88.8066583,45.692399 88.64,48.632 L88.736,48.632 Z" id="路径" fill="#407BFF"></path>
                    <path d="M49.456,86.4 L45.456,86.648 L48.656,94.008 C48.656,94.008 55.576,93.856 55.432,90.448 L54.184,88.848 C53.0288127,87.3955828 51.3088202,86.5050283 49.456,86.4 L49.456,86.4 Z" id="路径" fill="#FF8B7B"></path>
                    <polygon id="路径" fill="#FF8B7B" points="41.072 87.256 44.528 94.024 48.648 94.024 45.448 86.664"></polygon>
                    <path d="M88.16,37.288 L95.896,35.688 L102.056,34.8 C102.93627,34.656139 103.83036,34.6158646 104.72,34.68 C109.56069,35.119016 113.621717,38.5138307 114.912,43.2 C116.456,48.8 117.848,55.672 118.912,61.76 C120.4,70.216 121.168,82.92 121.312,94.472 L84.664,94.472 C83.864,73.552 79.416,60.072 77.904,51.712 C76.9679338,46.5239412 79.6183473,41.3508843 84.376,39.08 L88.16,37.288 Z" id="路径" fill="#407BFF"></path>
                    <path d="M84.664,41.888 C84.752,45.328 85.464,57.592 89.152,64.56 C89.8,58.032 97.552,38.16 97.552,38.16 L84.664,41.888 Z" id="路径" fill="#F5F5F5"></path>
                    <path d="M119.752,67.504 L119.752,67.504 C119.752,67.376 119.752,67.256 119.704,67.12 L119.632,66.544 C119.592,66.232 119.552,65.92 119.512,65.624 L119.392,64.768 L119.272,63.968 C119.272,63.744 119.2,63.512 119.168,63.296 C119.088,62.784 119.008,62.288 118.92,61.8 C118.656,60.304 118.376,58.752 118.072,57.192 L118.072,57.064 C117.768,55.464 117.456,53.92 117.12,52.36 L117.12,52.256 C116.984,51.584 116.84,50.928 116.688,50.264 L116.52,49.528 L116.232,48.256 L115.992,47.264 L115.944,47.056 L115.944,47.056 C115.624,45.744 115.296,44.456 114.96,43.24 L109.4,40.312 C110.04,42.768 110.648,45.472 111.224,48.24 C110.558624,48.5882275 109.944773,49.027077 109.4,49.544 C108.072,50.728 108.12,53.248 109.448,56.232 C113.124111,64.7646786 115.159617,73.9135997 115.448,83.2 C115.616,86.968 115.72,90.784 115.768,94.488 L121.368,94.488 C121.208,85.312 120.696,75.424 119.752,67.504 Z" id="路径" fill="#000000" opacity="0.3"></path>
                    <path d="M93.016,21.872 L89.872,26.672 L85.6,33.192 C86.1498539,33.7521249 86.5966881,34.4047737 86.92,35.12 C87.72,36.72 88.344,37.872 85.04,40.12 C84.336,40.6 84.312,41.36 84.472,42.2 C84.664,43.224 85.272,44.296 88.824,43.664 C92.2568525,43.0036401 95.3898386,41.266206 97.768,38.704 C98.952,37.512 98.68,36.624 97.536,35.392 C94.304,31.912 93.336,26.352 93.016,21.872 Z" id="路径" fill="#FF8B7B"></path>
                    <path d="M85.464,43.784 L87.728,45.208 L91.408,43.648 C90.5404957,42.7723564 89.4222264,42.1880607 88.208,41.976 C87.1502476,42.3268611 86.2037472,42.9505027 85.464,43.784 L85.464,43.784 Z" id="路径" fill="#263238"></path>
                    <path d="M88.168,41.976 C89.856,42.672 90.704,44.24 91.472,46.048 C91.472,46.048 99.56,39.92 99.728,35.88 C99.296,34.504 97.272,34.744 97.272,34.744 C97.272,34.744 94.808,39.016 88.168,41.976 Z" id="路径" fill="#FFFFFF"></path>
                    <path d="M88.168,41.976 C86.5515291,42.6300602 85.5248791,44.234201 85.608,45.976 C85.608,45.976 82.008,41.752 84.936,38.56 C85.7304537,38.1431871 86.5745046,37.828684 87.448,37.624 C87.448,37.624 86.568,39.384 88.168,41.976 Z" id="路径" fill="#FFFFFF"></path>
                    <path d="M88.44,44.544 L87.408,44.544 C87.072,45.12 86.608,52.624 86.424,56.616 C86.9184521,58.9466088 87.6447323,61.2219295 88.592,63.408 C88.5888141,63.4345715 88.5888141,63.4614285 88.592,63.488 C88.648,63.616 88.704,63.736 88.768,63.856 C88.88,64.096 88.992,64.336 89.12,64.56 C89.4895726,62.0818061 90.0648943,59.6386959 90.84,57.256 C89.784,52.632 88.44,44.544 88.44,44.544 Z" id="路径" fill="#263238"></path>
                    <path d="M86.656,31.584 L89.28,26.936 C89.328,27.048 89.392,27.184 89.456,27.312 C89.6860991,27.8921519 89.8732694,28.488423 90.016,29.096 C90.496,31.168 88.896,34.112 87.128,35.496 C87.056,35.368 86.992,35.232 86.92,35.096 C86.6053217,34.4243239 86.1987609,33.7996741 85.712,33.24 L85.608,33.16 L86.656,31.584 Z" id="路径" fill="#000000" opacity="0.2"></path>
                    <path d="M73.872,21.6 C73.24,18.76 77.76,14.832 77.76,14.832 L72.408,12.968 C69.992,14.704 71.56,19.656 73.872,21.6 Z" id="路径" fill="#263238"></path>
                    <path d="M91.904,13.392 C93.168,20.496 94.304,24.592 91.632,29.128 C89.9254599,32.1636361 86.6758743,34.0021175 83.1948954,33.9013656 C79.7139164,33.8006137 76.5761061,31.7772583 75.048,28.648 C72.048,22.792 70.488,12.168 76.592,7.504 C79.2245521,5.38152253 82.7883741,4.82204834 85.9446637,6.03575218 C89.1009533,7.24945601 91.3717518,10.052546 91.904,13.392 Z" id="路径" fill="#FF8B7B"></path>
                    <path d="M92,20.576 L88.64,19.656 L88.64,15.336 C88.64,15.336 84.392,12.936 85.048,9.936 C85.3734209,8.24939668 85.8308278,6.59096223 86.416,4.976 C86.416,4.976 93.152,4.544 95.216,5.408 C94.6813748,5.98722274 94.1008188,6.52229732 93.48,7.008 C95.0952449,8.12544187 96.480419,9.54320837 97.56,11.184 C96.7164858,11.3719242 95.9279099,11.7525216 95.256,12.296 C95.256,12.296 96.136,18.224 92,20.576 Z" id="路径" fill="#263238"></path>
                    <path d="M84.272,0.368 C86.744,1.92 85.312,4.768 85.312,4.768 L91.928,4.904 C91.576,2.816 85.84,0.264 84.272,0.368 Z" id="路径" fill="#263238"></path>
                    <path d="M86.856,11.392 C86.384,12.72 81.024,14.352 76.136,14.512 C73.6996445,14.459132 71.2886628,14.0050457 69,13.168 C69.6900975,12.4592185 70.5033248,11.8818271 71.4,11.464 C68.448,10.736 64.712,8.144 63.68,6.032 C65.8353781,5.26169429 68.1637317,5.11201441 70.4,5.6 C68.9214963,4.35200567 68.0074895,2.56147497 67.864,0.632 C67.864,0.632 80.376,5.592 85.192,3.536 C90.424,1.296 94.4,5.496 90.96,8.696 C87.52,11.896 86.856,11.392 86.856,11.392 Z" id="路径" fill="#263238"></path>
                    <path d="M95.728,18.536 C95.7960883,20.1028144 95.2865095,21.6400912 94.296,22.856 C93,24.4 90.984,23.168 90.52,21.256 C90.104,19.52 90.648,16.84 92.352,16.008 C94.056,15.176 95.64,16.592 95.728,18.536 Z" id="路径" fill="#FF8B7B"></path>
                    <path d="M81.088,20 C81.264,20.56 81.088,21.112 80.768,21.248 C80.448,21.384 79.968,21.032 79.784,20.448 C79.6,19.864 79.784,19.336 80.104,19.2 C80.424,19.064 80.904,19.408 81.088,20 Z" id="路径" fill="#263238"></path>
                    <path d="M74.888,22.24 C75.064,22.792 74.888,23.352 74.568,23.48 C74.248,23.608 73.768,23.272 73.584,22.68 C73.4,22.088 73.584,21.568 73.904,21.44 C74.224,21.312 74.704,21.68 74.888,22.24 Z" id="路径" fill="#263238"></path>
                    <path d="M77.008,21.944 C77.0340812,23.5996017 76.8403913,25.2513462 76.432,26.856 C77.2540372,27.0308508 78.111175,26.828308 78.768,26.304 L77.008,21.944 Z" id="路径" fill="#A02724"></path>
                    <path d="M80.8,28.44 C82.0977149,28.0049215 83.1649596,27.0645925 83.76,25.832 C83.793231,25.7436711 83.7508802,25.6448526 83.664,25.608 C83.6226987,25.5893522 83.5756155,25.5881803 83.5334376,25.6047502 C83.4912597,25.6213201 83.4575644,25.6542264 83.44,25.696 C82.781828,27.0370116 81.5368355,27.9951531 80.072,28.288 C80.0267615,28.2974241 79.9874021,28.3250659 79.9631837,28.3644208 C79.9389653,28.4037756 79.9320265,28.4513685 79.944,28.496 C79.9639289,28.5865422 80.0534353,28.6438262 80.144,28.624 C80.3664321,28.5769844 80.5855633,28.5155208 80.8,28.44 L80.8,28.44 Z" id="路径" fill="#263238"></path>
                    <path d="M82.464,16.72 C82.5133938,16.6906491 82.5546491,16.6493938 82.584,16.6 C82.6351085,16.5250529 82.6537408,16.4326247 82.6356606,16.3437301 C82.6175803,16.2548354 82.5643239,16.1770286 82.488,16.128 C81.5750071,15.5169963 80.4188803,15.3971904 79.4,15.808 C79.2276872,15.8897382 79.1542619,16.0956872 79.236,16.268 C79.3177382,16.4403128 79.5236872,16.5137381 79.696,16.432 C80.4921229,16.1230206 81.3892164,16.2246912 82.096,16.704 C82.2052369,16.780091 82.3485711,16.7863229 82.464,16.72 L82.464,16.72 Z" id="路径" fill="#263238"></path>
                    <path d="M73.656,18.872 C73.6713605,18.8170533 73.6713605,18.7589467 73.656,18.704 C73.5824561,18.5301257 73.3825237,18.4480106 73.208,18.52 C72.184789,18.9172919 71.4281267,19.8000645 71.192,20.872 C71.1876875,21.0433864 71.3102298,21.1917879 71.4793379,21.2199726 C71.648446,21.2481573 71.8124946,21.147521 71.864,20.984 C72.066257,20.14874 72.6635593,19.4648288 73.464,19.152 C73.5728072,19.0989494 73.6457228,18.992614 73.656,18.872 L73.656,18.872 Z" id="路径" fill="#263238"></path>
                    <path d="M113.208,39.76 C114.088,40.848 114.856,41.832 115.608,42.88 C116.36,43.928 117.144,44.968 117.88,46.032 C119.376,48.152 120.768,50.352 122.128,52.592 C123.488,54.832 124.752,57.168 125.888,59.64 C127.121057,62.2045705 128.099091,64.8841153 128.808,67.64 C129.205985,69.2421253 129.415405,70.8852663 129.432,72.536 C129.412119,74.1864826 129.175426,75.827196 128.728,77.416 C127.931424,80.1820958 126.769159,82.8294769 125.272,85.288 C124.584,86.464 123.84,87.592 123.064,88.68 C122.288,89.768 121.464,90.824 120.664,91.84 C118.994089,93.8830397 117.178693,95.8027078 115.232,97.584 C114.225748,98.4807181 112.71722,98.5138647 111.672552,97.662211 C110.627883,96.8105573 110.356411,95.3262875 111.032,94.16 L111.104,94.04 C113.588227,90.0094449 115.759919,85.7944372 117.6,81.432 C118.425646,79.4659043 119.026783,77.4129144 119.392,75.312 C119.525861,74.4682791 119.560764,73.6118153 119.496,72.76 C119.399667,71.9169528 119.217386,71.0859648 118.952,70.28 C118.260051,68.2344581 117.390052,66.2535369 116.352,64.36 C115.288,62.352 114.088,60.36 112.808,58.336 C111.528,56.312 110.184,54.336 108.808,52.392 L106.704,49.464 C106,48.512 105.264,47.496 104.6,46.624 L104.552,46.56 C102.674232,44.1785482 103.082548,40.7257682 105.464,38.8480001 C107.845452,36.9702319 111.298232,37.3785482 113.176,39.76 L113.208,39.76 Z" id="路径" fill="#407BFF"></path>
                    <path d="M36.984,98.776 L105.048,95.696 C105.481841,95.6675711 105.908571,95.816918 106.230003,96.1096774 C106.551434,96.4024368 106.739887,96.8133971 106.752,97.248 L35.432,100.448 C35.412519,100.01953 35.5658833,99.6011796 35.8576794,99.286822 C36.1494754,98.9724644 36.5552678,98.7884247 36.984,98.776 L36.984,98.776 Z" id="路径" fill="#407BFF"></path>
                    <g id="编组" opacity="0.6" transform="translate(35.200000, 95.200000)" fill="#FFFFFF">
                        <path d="M1.784,3.576 L69.848,0.496 C70.2818412,0.467571082 70.7085711,0.616918034 71.0300027,0.909677406 C71.3514344,1.20243678 71.5398873,1.61339712 71.552,2.048 L0.232,5.248 C0.212518955,4.81953048 0.365883331,4.40117962 0.657679386,4.08682201 C0.949475441,3.77246441 1.35526784,3.58842473 1.784,3.576 L1.784,3.576 Z" id="路径"></path>
                    </g>
                    <path d="M26.152,67.2 L74.576,65.008 C75.21239,65.0165778 75.775276,65.4227512 75.984,66.024 L85.28,95.52 C85.3816488,95.7674213 85.3529146,96.0492741 85.2034281,96.2710928 C85.0539416,96.4929116 84.8034845,96.6253424 84.536,96.624 L36.112,98.816 C35.4790846,98.8099957 34.9184398,98.4063315 34.712,97.808 L25.416,68.304 C25.3148897,68.0578892 25.3427552,67.7776144 25.4903449,67.5562299 C25.6379346,67.3348454 25.8859322,67.2013254 26.152,67.2 Z" id="路径" fill="#407BFF"></path>
                    <path d="M26.152,67.2 L74.576,65.008 C75.21239,65.0165778 75.775276,65.4227512 75.984,66.024 L85.28,95.52 C85.3816488,95.7674213 85.3529146,96.0492741 85.2034281,96.2710928 C85.0539416,96.4929116 84.8034845,96.6253424 84.536,96.624 L36.112,98.816 C35.4790846,98.8099957 34.9184398,98.4063315 34.712,97.808 L25.416,68.304 C25.3148897,68.0578892 25.3427552,67.7776144 25.4903449,67.5562299 C25.6379346,67.3348454 25.8859322,67.2013254 26.152,67.2 Z" id="路径" fill="#FFFFFF" opacity="0.6"></path>
                    <path d="M76,66.016 L85.296,95.512 C85.401164,95.7602671 85.3741971,96.0448065 85.2242659,96.2688973 C85.0743346,96.4929881 84.8216106,96.6264814 84.552,96.624034 L74.592,65 C75.22839,65.0085778 75.791276,65.4147512 76,66.016 L76,66.016 Z" id="路径" fill="#407BFF" opacity="0.5"></path>
                    <path d="M87.152,96.504 L105.048,95.704 C105.481841,95.6755711 105.908571,95.824918 106.230003,96.1176774 C106.551434,96.4104368 106.739887,96.8213971 106.752,97.256 L85.6,98.208 C85.5715711,97.7741588 85.720918,97.3474289 86.0136774,97.0259973 C86.3064368,96.7045656 86.7173971,96.5161127 87.152,96.504 Z" id="路径" fill="#407BFF" opacity="0.5"></path>
                    <path d="M109.76,93.824 L105.184,94.488 L109.872,101.008 C109.872,101.008 117.32,99.816 116.456,96.512 L114.856,95.184 C113.426083,94.0304291 111.574557,93.5363012 109.76,93.824 Z" id="路径" fill="#FF8B7B"></path>
                    <polygon id="路径" fill="#FF8B7B" points="99.584 96.44 105.32 101.44 109.872 101.008 105.184 94.488"></polygon>
                </g>
            </g>
        </g>
    </g>
</svg>